<?xml version="1.0" encoding="utf-8" ?>
<svg xmlns="http://www.w3.org/2000/svg" xmlns:xlink="http://www.w3.org/1999/xlink" width="1024" height="1024">
	<path fill="#3C3C3B" transform="scale(2 2)" d="M208.08 143.602C207.399 111.798 219.73 84.3155 244.58 63.9422C247.928 61.1972 251.591 58.1406 255.494 56.259C260.574 56.2337 273.489 69.0129 277.237 72.9037C296.85 93.2678 304.477 116.109 303.962 143.602C318.725 126.063 335.581 115.53 358.625 112.061C365.604 111.011 389.633 110.502 395.61 115.212C398.364 117.383 399.681 129.207 400.098 132.968C402.532 154.889 395.325 177.367 382.166 194.828C378.803 199.29 374.57 202.96 371.135 207.335L370.855 207.695C396.102 204.69 423.109 218.012 440.808 235.25C461.454 255.359 461.105 256.417 440.738 276.412C419.33 297.43 398.021 304.261 369.293 303.995C380.606 311.256 392.622 331.052 396.803 343.692C401.214 357.026 403.707 383.774 397.052 397.034C389.97 400.197 377.372 400.928 369.491 400.695C342.569 399.9 321.798 388.011 303.962 368.986C305.319 393.656 296.313 417.845 279.324 435.84C273.529 441.978 268.2 445.855 262.42 451.283L262.189 451.503C260.119 452.898 258.38 454.047 255.937 454.648C249.5 452.223 240.8 443.951 235.889 439.013C215.772 418.786 207.968 397.312 208.08 369.647C198.739 378.692 189.328 387.226 177.331 392.645C161.375 399.854 132.224 403.506 115.099 397.034C112.793 392.749 112.223 387.029 111.817 382.239C109.081 350.022 120.608 328.534 140.221 305.227L139.625 305.245C113.49 305.881 91.0051 295.203 72.3662 277.413C51.7758 257.761 51.8126 254.493 71.8216 234.553C91.2155 215.226 112.465 207.683 139.129 207.695C122.1 189.011 111.628 165.568 111.564 140.068C111.549 134.137 112.246 118.779 116.114 114.885C150.901 103.176 184.446 116.62 208.08 143.602ZM369.293 142.47C348.319 141.942 331.114 152.33 319.953 169.463C321.219 170.285 322.498 170.933 323.866 171.569C332.14 178.206 340.279 180.297 349.405 189.687C363.825 177.075 370.816 162.139 369.293 142.47ZM192.005 169.463C183.275 153.914 164.835 143.771 147.398 142.317C145.436 142.154 143.009 141.017 142.647 143.602C144.215 162.728 147.537 175.448 160.905 190.647C170.035 182.962 178.864 176.335 189.471 170.681C190.34 170.321 191.168 169.891 192.005 169.463ZM293.664 156.33C298.163 132.591 295.985 112.092 281.864 91.3924C275.177 81.5905 266.264 71.5313 255.937 65.4245C226.192 84.1044 212.227 118.256 217.468 152.368C217.705 153.911 217.938 159.172 219.746 159.616C222.336 158.808 224.908 158.274 227.577 157.812C227.599 150.682 226.525 143.928 227.251 136.737C229.229 117.152 240.741 97.1314 255.937 84.7273C275.797 102.497 291.25 130.67 283.244 157.812C286.664 158.135 289.933 158.833 293.269 159.616C293.467 158.514 293.604 157.449 293.664 156.33ZM209.543 162.723C211.142 161.424 208.824 159.052 207.999 157.754C187.803 125.959 157.304 114.081 121.408 121.653C115.957 138.654 122.572 166.78 130.372 181.885C132.325 185.668 145.469 205.641 149.359 205.032C150.995 201.821 153.197 199.172 155.545 196.47C143.415 182.044 135.375 164.757 134.592 145.692C134.49 143.204 133.452 136.686 136.093 135.12C139.741 132.956 152.932 134.735 157.046 135.704C174.53 139.824 190.298 150.965 199.738 166.311C202.819 164.926 206.238 163.472 209.543 162.723ZM390.025 121.653C362.263 112.372 327.658 126.49 309.971 148.711C308.384 150.705 301.613 159.907 301.885 162.308L302.428 162.723C305.843 163.181 309.36 165.007 312.529 166.311C323.813 150.127 335.393 139.15 355.992 135.404C362.106 134.292 376.662 131.392 377.478 140.017C379.801 164.547 371.472 179.369 354.885 195.229C356.471 197.028 358.121 198.799 359.574 200.707C360.371 201.746 361.333 202.671 362.236 203.618C385.365 182.79 399.44 153.16 390.025 121.653ZM288.269 166.311C268.309 162.437 239.153 160.696 219.328 167.566C195.429 172.367 167.609 190.68 154.409 210.663C132.405 243.974 135.825 282.863 162.424 311.977C184.259 340.272 232.461 355.096 266.75 351.95C298.072 349.075 331.747 333.984 352.062 309.48C382.744 272.471 378.254 223.609 341.224 192.949C339.782 191.388 338.068 190.13 336.373 188.862C323.298 178.459 304.469 170.134 288.269 166.311ZM369.293 215.488C369.904 216.499 370.354 217.679 370.855 218.752C372.91 221.95 374.023 225.607 375.84 228.942C395.436 229.412 412.572 238.045 426.176 252.17C429.876 256.012 427.608 258.774 424.258 261.847C409.16 275.696 396.439 281.612 375.84 283.032C374.689 286.12 373.423 289.22 372.482 292.377C371.786 293.521 371.338 294.738 370.855 295.981C399.393 297.79 429.368 282.875 445.665 259.535C446.813 258.348 447.613 256.996 448.329 255.522C430.832 230.501 400.199 213 369.293 215.488ZM140.221 218.752C141.106 217.909 141.987 217.129 142.647 216.089C113.337 213.094 78.9813 229.918 64.9341 256.252C81.4215 277.593 98.989 292.812 127.304 296.42C132.41 297.071 137.543 297.177 142.647 297.754C141.949 296.42 141.216 295.084 140.221 293.944C139.463 290.644 137.813 287.819 137.312 284.427C120.097 284.657 93.4003 273.09 84.0292 258.058C89.1248 240.893 120.936 228.328 137.312 228.342C138.329 225.15 139.542 222.043 140.221 218.752ZM133.872 239.931L134.548 236.549C119.475 237.459 105.36 244.315 95.1595 255.407C94.1916 256.46 94.2089 257.072 95.1975 258.058C103.848 269.399 120.411 274.762 133.872 276.503C132.947 262.133 130.647 255.945 133.872 239.931ZM378.495 236.549C378.738 238.951 379.219 241.32 379.66 243.691C381.035 254.197 380.706 264.48 378.495 274.859C396.679 272.726 404.707 267.778 418.417 256.625L418.541 256.21L417.688 255.522C407.096 243.689 393.538 239.024 378.495 236.549ZM362.236 309.518C360.022 312.266 357.685 314.985 355.726 317.921C366.293 323.565 374.948 344.012 376.637 356.253C377.129 359.816 378.198 374.048 376.207 377.077C374.679 379.402 368.379 378.429 366.048 378.359C345.519 377.736 324.046 365.334 312.529 348.211C309.131 349.417 305.605 350.795 302.428 352.499C303.856 354.808 305.614 358.666 307.77 360.279C324.916 386.443 361.141 396.663 390.817 390.961C397.528 367.378 390.573 339.822 375.269 321.11C373.848 319.372 364.706 309.262 362.729 309.07L362.236 309.518ZM151.431 311.193C150.77 310.128 150.113 309.078 149.359 308.074C128.411 328.62 113.089 361.408 121.408 390.961C127.755 391.273 134.024 392.162 140.393 392.21C166.715 392.406 193.596 379.733 207.178 356.615C208.206 355.802 208.972 353.666 209.543 352.499C206.67 350.467 203.02 349.434 199.738 348.211C196.503 351.035 193.972 354.689 190.919 357.723C181.149 367.427 168.348 374.019 154.767 376.336C142.129 378.491 134.643 380.731 134.533 367.588C134.373 348.351 142.11 330.014 155.545 316.35C154.091 314.709 152.78 312.922 151.431 311.193ZM219.328 355.097C217.287 355.987 216.896 364.171 216.662 366.255C212.968 399.139 230.194 426.602 255.937 445.595C283.845 427.724 300.384 395.962 294.271 362.854C294.264 360.229 293.727 357.672 293.269 355.097C289.918 355.923 286.58 356.795 283.244 357.681C288.101 380.224 279.862 401.653 264.97 418.833C253.862 431.648 252.239 426.09 242.219 412.344C229.279 394.592 225.492 379.33 228.885 357.681C225.694 356.841 222.493 356.029 219.328 355.097ZM255.937 95.4253C238.312 112.11 232.827 133.123 235.252 156.33C242.178 155.996 248.986 155.207 255.937 155.338C262.645 155.231 269.317 155.797 275.999 156.33C278.691 137.428 276.118 121.13 264.186 105.262C261.986 102.336 258.818 97.482 255.937 95.4253ZM160.905 322.005C149.214 334.526 142.004 351.284 142.631 368.567L142.647 368.986C151.151 369.514 160.331 367.417 168.063 363.898C177.391 359.486 185.664 352.764 192.005 344.613C179.066 336.994 171.943 332.153 160.905 322.005ZM350.314 323.84C347.482 325.289 345.106 327.656 342.635 329.65C335.007 335.805 326.742 339.348 319.953 344.613C325.79 353.248 335.055 360.517 344.362 364.988C352.321 368.681 360.471 370.794 369.293 370.706C369.286 353.962 365.668 337.968 353.401 325.69C352.594 324.882 351.505 323.857 350.314 323.84ZM236.113 358.903C233.179 380.643 240.637 401.073 255.937 416.572C259.925 413.165 262.705 408.833 265.685 404.567C274.988 390.094 278.583 376.029 275.999 358.903C259.031 360.641 252.266 360.007 236.113 358.903Z"/>
	<path fill="#50C5D4" transform="scale(2 2)" d="M255.937 70.4988C278.696 83.3048 291.311 116.271 293.243 140.896C293.492 144.072 292.572 154.328 293.664 156.33C293.604 157.449 293.467 158.514 293.269 159.616C289.933 158.833 286.664 158.135 283.244 157.812C291.25 130.67 275.797 102.497 255.937 84.7273C240.741 97.1314 229.229 117.152 227.251 136.737C226.525 143.928 227.599 150.682 227.577 157.812C224.908 158.274 222.336 158.808 219.746 159.616C220.272 157.53 219.363 147.682 219.3 144.872C218.673 116.935 232.276 86.2587 255.937 70.4988Z"/>
	<path fill="#3C3C3B" transform="scale(2 2)" d="M192.005 109.837C185.265 110.458 182.286 99.9697 179.007 94.3207C176.784 90.4926 167.287 79.7997 174.782 77.2105C179.871 76.8088 183.023 85.737 185.219 89.4392C187.953 94.0502 197.974 105.985 192.005 109.837Z"/>
	<path fill="#3C3C3B" transform="scale(2 2)" d="M323.866 110.838C312.432 110.198 324.214 94.9021 326.943 89.7932C329.193 85.5817 330.969 79.3929 335.516 77.2105C345.918 77.9773 332.789 95.6944 330.626 99.755C329.052 102.711 326.871 109.283 323.866 110.838Z"/>
	<path fill="#FD7069" transform="scale(2 2)" d="M235.252 156.33C232.827 133.123 238.312 112.11 255.937 95.4253C258.818 97.482 261.986 102.336 264.186 105.262C276.118 121.13 278.691 137.428 275.999 156.33C269.317 155.797 262.645 155.231 255.937 155.338C248.986 155.207 242.178 155.996 235.252 156.33Z"/>
	<path fill="#50C5D4" transform="scale(2 2)" d="M149.359 205.032C147.616 201.232 142.025 194.539 139.515 190.355C128.589 172.146 121.657 149.825 124.651 128.418C125.262 124.047 128.179 124.489 132.01 124.124C164.289 121.042 191.674 135.307 209.543 162.723C206.238 163.472 202.819 164.926 199.738 166.311C190.298 150.965 174.53 139.824 157.046 135.704C152.932 134.735 139.741 132.956 136.093 135.12C133.452 136.686 134.49 143.204 134.592 145.692C135.375 164.757 143.415 182.044 155.545 196.47C153.197 199.172 150.995 201.821 149.359 205.032Z"/>
	<path fill="#50C5D4" transform="scale(2 2)" d="M302.428 162.723L302.723 162.487C306.961 159.071 309.931 152.802 313.861 148.726C332.434 129.468 359.66 119.973 386.083 124.951C392.717 152.156 381.658 183.391 359.574 200.707C358.121 198.799 356.471 197.028 354.885 195.229C371.472 179.369 379.801 164.547 377.478 140.017C376.662 131.392 362.106 134.292 355.992 135.404C335.393 139.15 323.813 150.127 312.529 166.311C309.36 165.007 305.843 163.181 302.428 162.723Z"/>
	<defs>
		<linearGradient id="gradient_0" gradientUnits="userSpaceOnUse" x1="180.56158" y1="148.87505" x2="154.23724" y2="162.71782">
			<stop offset="0" stop-color="#FE9A7E"/>
			<stop offset="1" stop-color="#FBB5AE"/>
		</linearGradient>
	</defs>
	<path fill="url(#gradient_0)" transform="scale(2 2)" d="M142.647 143.602C143.009 141.017 145.436 142.154 147.398 142.317C164.835 143.771 183.275 153.914 192.005 169.463C191.168 169.891 190.34 170.321 189.471 170.681C185.96 168.361 183.194 164.128 180.074 161.228C169.818 151.694 156.267 146.184 142.647 143.602Z"/>
	<path fill="#FBA08A" transform="scale(2 2)" d="M319.953 169.463C331.114 152.33 348.319 141.942 369.293 142.47C368.056 149.519 359.409 148.991 354.193 150.28C344.252 152.736 329.59 162.545 323.866 171.569C322.498 170.933 321.219 170.285 319.953 169.463Z"/>
	<path fill="#FD7069" transform="scale(2 2)" d="M369.293 142.47C370.816 162.139 363.825 177.075 349.405 189.687C340.279 180.297 332.14 178.206 323.866 171.569C329.59 162.545 344.252 152.736 354.193 150.28C359.409 148.991 368.056 149.519 369.293 142.47Z"/>
	<path fill="#FD7069" transform="scale(2 2)" d="M142.647 143.602C156.267 146.184 169.818 151.694 180.074 161.228C183.194 164.128 185.96 168.361 189.471 170.681C178.864 176.335 170.035 182.962 160.905 190.647C147.537 175.448 144.215 162.728 142.647 143.602Z"/>
	<path fill="white" transform="scale(2 2)" d="M288.269 166.311C281.962 166.639 292.753 167.569 288.536 172.691C284.091 172.662 292.025 174.393 293.269 175.394C282.608 171.565 268.064 170.699 256.763 170.681L256.45 170.511L255.937 170.681C244.054 170.313 230.912 172.84 219.328 175.394C219.748 174.903 219.923 174.936 220.519 174.745C221.674 172.071 216.211 171.547 222.304 167.476C221.431 167.205 220.572 167.561 219.679 167.567L219.328 167.566C239.153 160.696 268.309 162.437 288.269 166.311Z"/>
	<path fill="#3C3C3B" transform="scale(2 2)" d="M255.937 170.681L256.45 170.511L256.763 170.681C263.25 182.811 267.724 195.839 274.074 207.695C301.191 211.79 326.418 230.603 346.434 248.084C357.723 257.943 354.567 256.971 342.924 267.2C328.355 280.001 309.571 292.422 291.276 298.989C285.61 301.023 279.761 302.127 274.074 303.995C270.181 311.122 266.861 318.902 263.495 326.309C257.338 339.853 256.329 341.685 249.977 328.961L242.608 314.186C240.913 310.744 239.457 307.131 237.211 303.995C232.678 302.271 227.807 301.363 223.208 299.766C209.235 294.912 196.289 288.172 184.22 279.642C180.057 276.7 160.465 261.531 159.913 257.179C159.33 252.594 169.856 244.383 172.896 241.692C190.684 225.952 214.85 211.006 238.773 207.695C240.402 204.592 241.676 201.251 243.053 198.031L249.635 182.823C251.461 178.663 253.211 174.343 255.937 170.681ZM256.763 187.392C252.969 192.915 250.995 199.883 248.391 206.038L256.763 206.038C259.378 206.078 262.005 206.171 264.619 206.038C261.364 199.966 259.485 193.606 256.763 187.392ZM250.465 213.731C217.173 217.862 192.733 231.925 169.162 256.252C187.516 277.104 223.99 296.07 250.956 297.663C254.68 297.882 258.458 297.77 262.189 297.754C288.733 294.952 309.877 282.909 330.894 267.207C335.535 263.74 339.596 259.531 344.362 256.252C318.774 234.405 286.141 210.833 250.465 213.731ZM246.602 305.227C250.265 311.148 252.724 317.682 255.937 323.84C257.02 321.739 258.047 319.763 259.557 317.921C260.646 313.426 262.9 309.482 264.619 305.227C258.559 305.431 252.659 305.443 246.602 305.227Z"/>
	<path fill="#FECB5B" transform="scale(2 2)" d="M219.328 175.394C230.912 172.84 244.054 170.313 255.937 170.681C253.211 174.343 251.461 178.663 249.635 182.823L243.053 198.031C241.676 201.251 240.402 204.592 238.773 207.695C214.85 211.006 190.684 225.952 172.896 241.692C169.856 244.383 159.33 252.594 159.913 257.179C160.465 261.531 180.057 276.7 184.22 279.642C196.289 288.172 209.235 294.912 223.208 299.766C227.807 301.363 232.678 302.271 237.211 303.995C239.457 307.131 240.913 310.744 242.608 314.186L249.977 328.961C256.329 341.685 257.338 339.853 263.495 326.309C266.861 318.902 270.181 311.122 274.074 303.995C279.761 302.127 285.61 301.023 291.276 298.989C309.571 292.422 328.355 280.001 342.924 267.2C354.567 256.971 357.723 257.943 346.434 248.084C326.418 230.603 301.191 211.79 274.074 207.695C267.724 195.839 263.25 182.811 256.763 170.681C268.064 170.699 282.608 171.565 293.269 175.394C302.034 175.309 327.838 185.556 335.516 190.647C337.153 191.382 339.466 192.956 341.224 192.949C378.254 223.609 382.744 272.471 352.062 309.48C331.747 333.984 298.072 349.075 266.75 351.95C232.461 355.096 184.259 340.272 162.424 311.977C162.63 311.255 162.468 310.931 162.113 310.272C153.165 293.686 147.661 285.515 146.056 266.06C142.358 221.24 178.616 186.776 219.328 175.394Z"/>
	<path fill="#3C3C3B" transform="scale(2 2)" d="M408.391 192.949C405.452 193.109 402.411 190.228 404.113 187.231C405.426 184.917 427.306 173.085 432.633 171.569C435.353 171.278 437.215 174.225 436.288 176.655C435.406 178.968 412.797 191.172 408.391 192.949Z"/>
	<path fill="#3C3C3B" transform="scale(2 2)" d="M107.243 194.317C102.7 194.891 94.8735 188.515 91.0122 186.295C86.7456 183.842 69.9201 177.772 78.9898 171.569C82.594 171.303 108.348 186.335 109.564 188.281C111.082 190.711 109.44 193.094 107.243 194.317Z"/>
	<path fill="#FECB5B" transform="scale(2 2)" d="M248.391 206.038C250.995 199.883 252.969 192.915 256.763 187.392C259.485 193.606 261.364 199.966 264.619 206.038C262.005 206.171 259.378 206.078 256.763 206.038L248.391 206.038Z"/>
	<path fill="white" transform="scale(2 2)" d="M336.373 188.862C338.068 190.13 339.782 191.388 341.224 192.949C339.466 192.956 337.153 191.382 335.516 190.647C335.964 190.025 336.166 189.601 336.373 188.862Z"/>
	<path fill="white" transform="scale(2 2)" d="M169.162 256.252C192.733 231.925 217.173 217.862 250.465 213.731C286.141 210.833 318.774 234.405 344.362 256.252C339.596 259.531 335.535 263.74 330.894 267.207C309.877 282.909 288.733 294.952 262.189 297.754C258.458 297.77 254.68 297.882 250.956 297.663C223.99 296.07 187.516 277.104 169.162 256.252ZM252.096 220.266C230.452 222.401 209.843 230.577 192.857 244.266C182.661 252.482 176.833 254.351 186.665 262.512C207.439 279.753 233.582 292.543 261.188 290.99C283.84 288.706 303.476 279.92 321.264 265.861C323.806 263.852 331.177 259.394 331.472 255.965C330.158 251.315 308.309 236.429 302.985 233.451C288.378 225.282 269.157 218.862 252.096 220.266Z"/>
	<path fill="#50C5D4" transform="scale(2 2)" d="M370.855 218.752C400.08 217.918 425.258 234.175 443.799 255.522C442.804 256.735 441.39 258.144 440.713 259.535L440.38 259.777C435.869 263.087 432.229 267.744 427.956 271.395C411.537 285.422 394.427 292.904 372.482 292.377C373.423 289.22 374.689 286.12 375.84 283.032C396.439 281.612 409.16 275.696 424.258 261.847C427.608 258.774 429.876 256.012 426.176 252.17C412.572 238.045 395.436 229.412 375.84 228.942C374.023 225.607 372.91 221.95 370.855 218.752Z"/>
	<path fill="#50C5D4" transform="scale(2 2)" d="M69.3188 258.058C76.8619 240.88 104.312 223.676 122.345 220.482C128.267 219.433 134.265 219.464 140.221 218.752C139.542 222.043 138.329 225.15 137.312 228.342C120.936 228.328 89.1248 240.893 84.0292 258.058C93.4003 273.09 120.097 284.657 137.312 284.427C137.813 287.819 139.463 290.644 140.221 293.944C134.438 295.189 123.495 293.017 117.727 291.429C103.116 287.407 77.1348 271.831 69.3188 258.058Z"/>
	<path fill="#3C3C3B" transform="scale(2 2)" d="M261.188 290.99C233.582 292.543 207.439 279.753 186.665 262.512C176.833 254.351 182.661 252.482 192.857 244.266C209.843 230.577 230.452 222.401 252.096 220.266C269.157 218.862 288.378 225.282 302.985 233.451C308.309 236.429 330.158 251.315 331.472 255.965C331.177 259.394 323.806 263.852 321.264 265.861C303.476 279.92 283.84 288.706 261.188 290.99ZM252.65 227.944C237.583 229.956 226.998 243.799 229.007 258.867C231.015 273.934 244.857 284.521 259.925 282.516C274.997 280.509 285.587 266.663 283.578 251.592C281.569 236.52 267.721 225.932 252.65 227.944ZM227.577 233.921C218.399 235.608 197.394 248.772 192.005 256.252C196.991 261.346 203.353 265.762 209.543 269.276C215.655 272.75 222.231 276.135 228.885 278.438C219.078 263.716 217.427 248.861 227.837 234.21L227.744 233.971L227.577 233.921ZM284.732 233.921C295.39 249.945 295.416 263.458 283.244 278.438C289.949 275.991 296.039 272.41 302.428 269.276C308.452 265.203 315.252 261.142 319.953 255.522C313.466 249.934 293.421 235.444 284.732 233.921Z"/>
	<path fill="#7EC178" transform="scale(2 2)" d="M259.925 282.516C244.857 284.521 231.015 273.934 229.007 258.867C226.998 243.799 237.583 229.956 252.65 227.944C267.721 225.932 281.569 236.52 283.578 251.592C285.587 266.663 274.997 280.509 259.925 282.516ZM253.286 239.008C244.286 240.102 237.89 248.304 239.022 257.3C240.155 266.295 248.383 272.657 257.373 271.487C266.312 270.325 272.628 262.155 271.502 253.212C270.377 244.269 262.233 237.919 253.286 239.008Z"/>
	<path fill="white" transform="scale(2 2)" d="M192.005 256.252C197.394 248.772 218.399 235.608 227.577 233.921L227.744 233.971L227.837 234.21C217.427 248.861 219.078 263.716 228.885 278.438C222.231 276.135 215.655 272.75 209.543 269.276C203.353 265.762 196.991 261.346 192.005 256.252Z"/>
	<path fill="white" transform="scale(2 2)" d="M283.244 278.438C295.416 263.458 295.39 249.945 284.732 233.921C293.421 235.444 313.466 249.934 319.953 255.522C315.252 261.142 308.452 265.203 302.428 269.276C296.039 272.41 289.949 275.991 283.244 278.438Z"/>
	<path fill="#FBA08A" transform="scale(2 2)" d="M133.872 239.931C119.555 241.326 106.508 250.064 95.1975 258.058C94.2089 257.072 94.1916 256.46 95.1595 255.407C105.36 244.315 119.475 237.459 134.548 236.549L133.872 239.931Z"/>
	<path fill="#FBA08A" transform="scale(2 2)" d="M379.66 243.691C379.219 241.32 378.738 238.951 378.495 236.549C393.538 239.024 407.096 243.689 417.688 255.522C415.781 256.542 413.079 253.894 411.385 253.116C401.507 248.579 390.541 244.718 379.66 243.691Z"/>
	<path fill="#3C3C3B" transform="scale(2 2)" d="M257.373 271.487C248.383 272.657 240.155 266.295 239.022 257.3C237.89 248.304 244.286 240.102 253.286 239.008C262.233 237.919 270.377 244.269 271.502 253.212C272.628 262.155 266.312 270.325 257.373 271.487ZM253.995 246.906C249.352 247.597 246.164 251.943 246.899 256.58C247.633 261.217 252.009 264.364 256.638 263.586C261.207 262.818 264.305 258.513 263.58 253.937C262.855 249.361 258.578 246.223 253.995 246.906Z"/>
	<path fill="#FD7069" transform="scale(2 2)" d="M95.1975 258.058C106.508 250.064 119.555 241.326 133.872 239.931C130.647 255.945 132.947 262.133 133.872 276.503C120.411 274.762 103.848 269.399 95.1975 258.058Z"/>
	<path fill="#FD7069" transform="scale(2 2)" d="M379.66 243.691C390.541 244.718 401.507 248.579 411.385 253.116C413.079 253.894 415.781 256.542 417.688 255.522L418.541 256.21L418.417 256.625C404.707 267.778 396.679 272.726 378.495 274.859C380.706 264.48 381.035 254.197 379.66 243.691Z"/>
	<path fill="#0D9BA6" transform="scale(2 2)" d="M256.638 263.586C252.009 264.364 247.633 261.217 246.899 256.58C246.164 251.943 249.352 247.597 253.995 246.906C258.578 246.223 262.855 249.361 263.58 253.937C264.305 258.513 261.207 262.818 256.638 263.586Z"/>
	<path fill="#FECB5B" transform="scale(2 2)" d="M255.937 323.84C252.724 317.682 250.265 311.148 246.602 305.227C252.659 305.443 258.559 305.431 264.619 305.227C262.9 309.482 260.646 313.426 259.557 317.921C258.047 319.763 257.02 321.739 255.937 323.84Z"/>
	<path fill="#50C5D4" transform="scale(2 2)" d="M355.726 317.921C357.685 314.985 360.022 312.266 362.236 309.518C364.527 315.598 370.441 320.755 374.246 325.974C386.428 342.681 391.877 366.705 387.409 387.078C359.4 392.028 334.301 382.478 313.214 364.547C311.665 363.23 309.823 360.696 307.77 360.279C305.614 358.666 303.856 354.808 302.428 352.499C305.605 350.795 309.131 349.417 312.529 348.211C324.046 365.334 345.519 377.736 366.048 378.359C368.379 378.429 374.679 379.402 376.207 377.077C378.198 374.048 377.129 359.816 376.637 356.253C374.948 344.012 366.293 323.565 355.726 317.921Z"/>
	<path fill="#50C5D4" transform="scale(2 2)" d="M151.431 311.193C152.78 312.922 154.091 314.709 155.545 316.35C142.11 330.014 134.373 348.351 134.533 367.588C134.643 380.731 142.129 378.491 154.767 376.336C168.348 374.019 181.149 367.427 190.919 357.723C193.972 354.689 196.503 351.035 199.738 348.211C203.02 349.434 206.67 350.467 209.543 352.499C208.972 353.666 208.206 355.802 207.178 356.615C204.567 357.581 196.643 365.85 193.922 368.188C171.72 387.258 151.54 389.167 124.214 387.078C123.653 379.095 122.839 370.597 124.175 362.654C126.535 348.62 139.007 319.961 151.431 311.193Z"/>
	<path fill="#3C3C3B" transform="scale(2 2)" d="M81.6893 339.862C77.5319 339.96 74.6761 335.253 78.6671 332.434C83.1145 329.293 100.159 319.733 104.892 317.921C107.852 317.77 110.517 319.98 109.621 323.189C108.978 325.494 85.6752 337.484 81.6893 339.862Z"/>
	<path fill="#3C3C3B" transform="scale(2 2)" d="M432.633 339.862C429.083 340.119 409.838 328.981 405.841 326.502C402.236 324.267 402.823 321.262 406.254 319.256C408.106 319.163 445.697 333.792 432.633 339.862Z"/>
	<path fill="#FD7069" transform="scale(2 2)" d="M142.647 368.986L142.631 368.567C142.004 351.284 149.214 334.526 160.905 322.005C171.943 332.153 179.066 336.994 192.005 344.613C185.664 352.764 177.391 359.486 168.063 363.898C160.331 367.417 151.151 369.514 142.647 368.986Z"/>
	<path fill="#FD7069" transform="scale(2 2)" d="M319.953 344.613C326.742 339.348 335.007 335.805 342.635 329.65C345.106 327.656 347.482 325.289 350.314 323.84C351.505 323.857 352.594 324.882 353.401 325.69C365.668 337.968 369.286 353.962 369.293 370.706C360.471 370.794 352.321 368.681 344.362 364.988C335.055 360.517 325.79 353.248 319.953 344.613Z"/>
	<path fill="#50C5D4" transform="scale(2 2)" d="M219.328 355.097C222.493 356.029 225.694 356.841 228.885 357.681C225.492 379.33 229.279 394.592 242.219 412.344C252.239 426.09 253.862 431.648 264.97 418.833C279.862 401.653 288.101 380.224 283.244 357.681C286.58 356.795 289.918 355.923 293.269 355.097C293.727 357.672 294.264 360.229 294.271 362.854L294.238 362.857C293.88 363.312 294.311 373.142 294.184 375.049C292.65 398.15 279.933 419.143 263.241 434.553C260.948 436.67 258.371 439.383 255.494 440.618C233.081 422.496 219.888 400.84 218.747 371.134C218.544 365.855 219.44 360.644 219.336 355.38L219.328 355.097Z"/>
	<path fill="#FD7069" transform="scale(2 2)" d="M255.937 416.572C240.637 401.073 233.179 380.643 236.113 358.903C252.266 360.007 259.031 360.641 275.999 358.903C278.583 376.029 274.988 390.094 265.685 404.567C262.705 408.833 259.925 413.165 255.937 416.572Z"/>
	<path fill="#3C3C3B" transform="scale(2 2)" d="M336.373 435.246C331.48 434.217 329.7 427.933 327.549 424.038C324.498 418.515 313.198 404.909 321.426 402.273C326.155 401.53 331.797 415.605 334.042 419.605C336.666 424.281 343.24 431.3 336.373 435.246Z"/>
	<path fill="#3C3C3B" transform="scale(2 2)" d="M171.766 431.534C172.758 427.703 184.943 404.608 187.913 402.273C190.838 402.003 193.872 403.347 192.751 406.791C191.425 410.864 180.478 433.289 176.718 435.246C173.591 435.321 172.525 434.647 171.766 431.534Z"/>
</svg>
