<?xml version="1.0" encoding="utf-8" ?>
<svg xmlns="http://www.w3.org/2000/svg" xmlns:xlink="http://www.w3.org/1999/xlink" width="1024" height="1024">
	<path fill="white" d="M465.259 245.038C476.128 225.892 487.656 207.063 498.864 188.104C501.143 184.25 506.939 176.651 507.845 172.853C509.164 167.33 508.491 160.642 508.615 154.955L509.626 111.967C509.781 104.416 509.149 95.7498 510.621 88.3419C511.072 86.071 511.879 85.1327 513.808 83.9079C515.19 84.0596 517.245 84.259 518.16 85.4678C520.533 88.603 517.121 164.012 516.624 174.219C521.636 180.233 525.485 187.547 529.508 194.238C533.48 200.844 537.652 207.329 541.493 214.015C547.421 224.335 553.095 234.984 559.643 244.925C561.507 238.774 562.363 232.338 564.064 226.131C566.73 226.386 569.248 227.036 571.835 227.688C569.683 237.088 568.051 246.56 565.415 255.847C573.234 270.808 583.619 287.239 592.991 301.331C600.334 288.468 605.865 274.159 611.932 260.637C614.749 254.358 617.377 247.605 621.322 241.949C623.6 242.909 625.79 244.223 627.974 245.383C625.695 251.897 622.499 258.235 619.667 264.527C612.666 280.08 605.193 295.376 598.488 311.065C604.487 322.419 611.922 333.361 618.756 344.244C636.789 319.738 654.123 294.531 671.249 269.389C673.778 270.832 676.318 272.254 678.87 273.654L644.157 322.525C637.17 332.384 630.565 342.582 623.107 352.091C627.915 361.387 634.17 370.126 639.246 379.337C657.42 363.9 674.469 346.523 691.714 330.031C699.293 322.783 707.252 313.632 716.123 308.018C717.936 309.51 719.588 311.38 721.267 313.033C716.418 319.398 706.342 327.521 700.251 333.349L644.212 386.486C648.971 394.455 653.848 402.335 658.534 410.351C689.217 389.163 720.925 369.486 751.687 348.439L756.256 355.073C750.065 359.945 743.241 364.058 736.66 368.385C725.834 375.572 714.95 382.671 704.009 389.68C690.032 398.693 676.607 408.515 662.739 417.69C666.463 425.14 671.616 432.281 676.054 439.352C684.634 435.575 693.906 432.675 702.67 429.226L780.982 398.809L784.008 406.525C771.525 411.572 758.858 416.081 746.332 420.999C724.406 429.82 702.409 438.465 680.345 446.934C685.647 456.482 691.615 466.01 697.893 474.95C731.199 466.744 764.786 459.719 798.589 453.886C799.476 456.552 800.098 459.315 800.792 462.037C784.658 464.924 768.57 468.061 752.533 471.446C735.724 474.868 718.856 478.164 702.209 482.32C707.732 492.153 713.416 501.895 719.259 511.542C748.08 511.436 776.972 511.026 805.786 511.709L805.981 519.819C778.985 519.478 751.985 519.545 724.992 520.017C727.142 524.934 730.39 529.64 733.13 534.258L748.482 560.186C766.093 562.74 783.32 565.527 800.755 569.15C800.409 571.96 799.745 574.742 799.178 577.515C784.502 573.862 769.323 572.093 754.409 569.634C757.922 577.577 763.147 585.207 767.619 592.65L786.743 624.771L826.617 691.923C837.212 709.637 848.358 727.252 858.122 745.436C821.398 746.033 784.603 745.294 747.868 745.45C756.145 755.165 811.668 805.557 812.99 811.141C813.254 812.255 813.129 813.413 812.388 814.31C811.607 815.255 810.419 815.92 809.157 815.918C807.536 815.914 805.835 814.432 804.67 813.438C801.56 810.785 798.813 807.579 795.907 804.7L777.469 786.714C763.695 773.086 749.433 759.723 736.273 745.513C715.997 745.007 695.627 745.24 675.346 745.484C676.694 747.681 677.909 749.951 679.14 752.214C676.757 753.444 674.483 754.955 672.194 756.351C669.46 753.01 667.285 749.06 664.987 745.404C647.5 745.043 629.913 745.43 612.419 745.469C616.52 757.635 622.452 769.333 626.782 781.477C624.28 782.598 621.922 784.175 619.566 785.577C614.304 772.109 608.563 758.617 602.612 745.44L561.69 745.42C562.884 752.622 564.784 759.798 566.365 766.928C568.639 777.084 570.686 787.289 572.507 797.536L565.104 799.364C560.615 781.506 557.1 763.384 552.915 745.451L514.69 745.434C514.865 758.254 514.888 771.075 514.758 783.895L514.465 805.553L506.54 805.756C505.815 785.621 506.684 765.505 506.361 745.372C493.745 745.185 481.087 745.457 468.468 745.514C464.071 763.091 461.327 781.434 457.807 799.225L449.965 798.309C450.713 791.816 452.167 785.331 453.372 778.903L459.596 745.517C445.471 744.983 431.173 745.295 417.036 745.493L416.849 745.852C410.567 757.654 405.721 771.562 400.308 783.938L393.107 780.981C397.518 769.073 402.62 757.435 406.982 745.525C390.46 745.447 373.937 745.459 357.416 745.561C354.159 749.247 351.461 753.424 348.193 757.143L342.884 752.359C344.129 750.095 345.26 747.748 346.435 745.446C322.718 745.146 298.955 745.483 275.233 745.524C268.878 750.685 263.062 757.163 257.207 762.905C246.303 773.669 235.326 784.359 224.277 794.974C219.81 799.304 215.51 804.215 210.665 808.096C209.185 809.282 206.853 810.965 204.833 810.835C203.975 810.78 203.222 810.504 202.645 809.877C201.78 808.938 201.223 807.702 201.377 806.395C201.465 805.652 201.796 804.975 202.272 804.407C206.592 799.247 212.534 794.572 217.371 789.78C232.428 774.865 247.899 760.405 262.857 745.389C230.359 745.2 197.835 745.757 165.343 745.056C168.031 739.478 171.496 734.232 174.672 728.923L189.882 703.274L238.909 619.874C249.876 601.504 261.792 583.657 271.435 564.519C256.038 567.973 240.205 569.777 224.73 573.163C224.524 570.373 224.446 567.56 224.308 564.765C241.959 561.42 259.657 558.356 277.231 554.615C285.238 542.611 292.701 529.954 299.765 517.372C287.818 517.499 275.912 516.915 263.972 516.707C249.434 516.454 234.768 516.547 220.266 515.525L220.921 507.679C230.774 507.439 240.685 508.049 250.538 508.29L305.039 509.509C311.072 500.146 316.718 490.54 321.963 480.713C314.435 478.539 306.383 477.446 298.724 475.667L226.274 459.353C226.569 456.584 227.229 453.857 227.797 451.133C242.275 454.985 257.266 457.818 271.896 461.129C290.177 465.268 308.498 469.857 326.912 473.337L341.587 449.71C333.437 446.493 325.491 442.528 317.461 438.99C292.055 427.797 266.909 416.008 241.364 405.127C242.391 402.711 243.557 400.344 244.665 397.964C253.19 400.621 261.746 404.803 269.918 408.424C288.728 416.756 307.228 425.799 326.182 433.797C332.851 436.612 339.448 439.614 346.321 441.907C350.352 433.82 356.004 426.064 360.822 418.4L305.115 380.461C293.268 372.435 280.864 364.675 269.596 355.896C270.805 353.617 272.315 351.489 273.734 349.335C304.875 368.571 333.537 391.614 364.81 410.627C369.675 403.061 374.481 395.446 378.773 387.537C370.781 377.616 361.314 368.627 352.309 359.632C342.169 349.588 332.146 339.428 322.242 329.151C316.536 323.307 310.3 317.624 305.22 311.229C306.887 309.062 308.729 307.055 310.554 305.021C317.593 311.448 323.983 318.898 330.64 325.757L361.308 356.989C368.754 364.687 375.957 372.657 383.579 380.178C389.364 370.912 394.623 361.323 400.304 351.989C383.036 325.808 365.314 299.93 347.147 274.366L353.767 268.6C358.679 276.689 364.58 284.379 369.869 292.244C381.452 309.787 393.273 327.171 405.33 344.392C411.495 331.978 419.375 320.489 425.827 308.208C422.126 300.968 419.48 293.028 416.327 285.525C410.709 272.154 404.527 258.782 399.881 245.044C402.191 243.899 404.635 243.014 407.03 242.064C408.736 247.304 411.251 252.413 413.37 257.505C419.281 271.71 425.743 285.799 431.049 300.239C440.133 285.419 449.87 271.009 458.516 255.921C456.693 246.44 454.505 237.033 452.458 227.598L460.654 226.541L465.259 245.038ZM511.42 185.818C459.586 273.578 407.206 361.015 354.283 448.123C310.388 519.061 267.49 590.612 225.602 662.753C211.553 686.834 196.299 710.348 182.92 734.799C221.78 735.919 260.912 735.054 299.804 735.032L512.75 735.063L728.84 735.029L802.76 734.967C815.38 734.936 828.1 735.218 840.708 734.784C837.575 729.369 834.053 724.218 830.827 718.863L810.057 683.877L679.003 464.985L566.532 277.229C560.352 266.867 515.863 188.919 511.42 185.818Z"/>
	<path fill="white" d="M397.623 231.114C396.291 231.623 395.611 232.11 394.197 231.8C389.231 222.036 385.189 211.558 381.049 201.411C376.273 189.731 371.41 178.088 366.46 166.482L354.504 138.825C352.245 133.631 349.19 128.012 347.927 122.511C347.356 120.024 348.54 118.37 349.872 116.44C351.221 116.423 353.031 116.345 354.217 117.09C355.056 117.616 355.523 118.418 355.907 119.293C364.173 138.153 371.601 157.484 379.647 176.451C384.863 188.506 390.002 200.594 395.064 212.714C397.07 217.499 400.614 223.697 401.272 228.783C400.468 230.326 399.195 230.453 397.623 231.114Z"/>
	<path fill="white" d="M626.503 229.319C631.084 217.979 636.49 206.948 641.515 195.799C647.886 181.664 654.009 167.48 660.57 153.423C665.345 143.192 669.403 131.692 675.417 122.15C676.256 120.819 677.088 120.178 678.446 119.412C678.944 119.525 679.446 119.627 679.935 119.776C681.363 120.214 682.707 121.146 683.232 122.604C683.603 123.634 683.482 124.935 683.127 125.954C682.075 128.971 679.994 131.877 678.631 134.824L666.786 161.105L644.995 208.418C641.272 216.549 638.013 225.427 633.592 233.176L632.97 232.983C630.848 231.711 628.658 230.534 626.503 229.319Z"/>
	<path fill="white" d="M566.72 213.092C569.574 200.582 572.219 188.024 574.656 175.426C576.022 168.556 576.972 161.079 579.094 154.418C579.806 152.181 580.416 151.485 582.507 150.398C583.714 150.626 585.439 150.955 586.273 151.98C586.928 152.783 587.156 153.302 587.207 154.316C587.385 157.859 575.902 212.563 574.503 214.066L572.882 213.888L566.72 213.092Z"/>
	<path fill="white" d="M453.65 214.135C452.664 214.551 451.666 214.892 450.656 215.242L449.974 214.902C447.777 208.961 435.761 156.708 436.873 153.353C437.363 151.874 438.061 151.662 439.334 150.975C440.622 151.074 441.458 151.301 442.632 151.839C443.716 153.02 444.106 154.109 444.543 155.643C447.467 165.887 449.135 176.954 451.438 187.395C453.333 195.989 456.053 204.703 457.369 213.369C456.336 214.207 454.961 214.026 453.65 214.135Z"/>
	<path fill="white" d="M679.807 258.852C687.134 247.408 694.684 236.108 702.452 224.959C706.461 219.129 710.351 212.608 715.201 207.459C716.144 207.476 717.291 207.45 718.197 207.73C719.493 208.13 719.936 208.859 720.581 209.964C720.733 211.476 720.652 212.423 719.997 213.811C717.365 219.389 713.053 224.623 709.538 229.687C701.81 240.823 693.688 251.899 686.43 263.331L679.807 258.852Z"/>
	<path fill="white" d="M297.67 300.669L296.504 301.514C296.344 301.437 296.178 301.374 296.025 301.284C292.772 299.366 289.309 294.67 286.615 291.898L257.93 261.958C243.854 247.357 228.96 233.32 215.28 218.359C214.065 217.03 212.177 215.247 211.931 213.395C211.672 211.442 213.093 209.796 214.248 208.42C215.304 208.422 216.446 208.379 217.489 208.542C218.85 208.754 219.649 209.583 220.591 210.491C227.332 216.987 233.594 224.149 240.052 230.935L273.256 265.615C282.741 275.648 293.611 285.219 301.946 296.185L297.67 300.669Z"/>
	<path fill="white" d="M342.382 261.645C341.366 262.288 341.001 262.568 339.776 262.695L318.16 232.168C314.558 227.092 309.785 221.528 307.01 215.99C306.477 214.926 306.287 213.896 306.367 212.716C306.491 210.902 307.524 210.018 308.805 208.93C309.793 208.962 310.779 209.043 311.765 209.109C316.853 212.78 339.983 249.437 346.632 258.201C345.274 259.413 343.808 260.514 342.382 261.645Z"/>
	<path fill="white" d="M725.05 299.297C729.748 293.436 735.815 288.456 741.239 283.249C753.982 271.015 766.972 259.074 779.822 246.956L802.526 225.243C807.209 220.765 811.927 215.58 817.328 212.001C818.396 212.019 819.416 211.996 820.436 212.374C822.119 212.998 822.848 213.981 823.467 215.59C823.347 217.956 821.788 219.424 820.251 221.088C816.347 225.312 811.845 229.072 807.603 232.955L787.699 251.354C768.736 268.915 750.09 286.763 730.963 304.16C728.882 303.167 726.81 300.836 725.05 299.297Z"/>
	<path fill="white" d="M219.825 713.847C224.667 704.343 230.923 695.201 236.33 685.994L265.004 636.78L336.489 516.522L434.913 354.711C460.215 311.966 485.844 269.415 511.796 227.061C517.484 232.708 527.245 251.337 531.825 259.086L575.24 332.67C652.595 458.946 728.673 586.001 803.462 713.814C765.856 714.44 728.187 713.93 690.573 713.896L511.25 713.784L219.825 713.847ZM510.336 451.74C459.128 453.068 413.148 469.488 377.339 507.191C371.224 513.629 365.234 520.138 358.868 526.334C344.652 540.174 322.201 559.911 312.379 576.539L313.075 576.171C330.173 567.026 349.283 552.108 364.528 540.2C407.496 506.64 442.616 484.032 498.378 479.635C533.306 478.48 563.979 483.665 595.802 498.321C624.982 511.76 649.834 532.062 674.205 552.677C680.863 558.309 687.025 565.025 694.018 570.16C695.531 571.271 697.489 571.127 699.301 570.905C699.805 567.993 693.36 559.918 691.575 557.388C656.313 507.392 609.875 465.043 547.761 454.418C535.325 452.291 522.926 451.809 510.336 451.74ZM501.058 487.288C465.671 489.269 432.318 501.164 402.815 520.737C391.113 528.501 380.082 537.394 368.945 545.943C359.307 553.341 345.035 562.924 336.619 570.988C354.326 563.749 370.49 552.057 387.183 542.76C428.288 519.867 476.532 508.701 523.479 509.371C572.159 510.232 606.575 526.131 647.464 550.942C660.234 558.691 672.574 567.118 685.869 573.983C679.461 565.22 668.567 557.663 660.204 550.766C622.928 520.023 587.103 496.664 538.289 489.121C526.184 487.251 513.285 486.285 501.058 487.288ZM567.098 522.579C571.525 542.078 573.253 561.389 562.179 579.217C554.132 592.173 540.634 602.964 525.642 606.409C510.837 609.824 495.282 607.22 482.396 599.17C469.107 590.742 459.797 577.291 456.588 561.885C453.636 548.312 456.074 535.1 461.972 522.706C450.563 525.253 439.273 528.302 428.134 531.845C424.927 546.845 424.571 560.26 428.259 575.246C435.49 598.421 449.524 617.046 471.283 628.387C492.426 639.407 518.037 641.026 540.661 633.796C563.328 626.552 581.196 611.177 591.907 589.996C600.09 573.814 603.6 552.081 599.258 534.307C588.791 529.438 578.181 525.773 567.098 522.579ZM418.31 535.488C398.998 544.345 381.375 555.629 362.921 566.04C356.279 569.787 349.227 572.733 342.513 576.325C349.007 580.179 355.864 583.389 362.518 586.954C376.533 594.462 390.464 602.027 404.632 609.25C422 618.015 439.222 625.205 457.964 630.542C452.464 625.825 446.733 621.211 441.765 615.924C427.761 600.96 419.3 581.655 417.788 561.217C417.126 552.931 418.569 545.275 418.797 537.097C418.821 536.23 418.966 536.119 418.31 535.488ZM608.41 538.18C608.617 545.491 608.966 552.84 608.358 560.139C606.67 580.658 598.129 600.012 584.109 615.087C578.084 621.475 571.318 627.122 563.955 631.907C581.585 627.705 598.119 621.014 614.28 612.916C635.267 602.475 655.569 589.694 675.546 577.426C660.62 567.664 645.486 557.969 629.909 549.278C622.862 545.346 615.438 542.105 608.41 538.18ZM481.887 551.419C479.264 554.985 479.053 560.033 479.72 564.286C480.151 567.036 481.048 569.167 483.336 570.802C484.411 571.033 485.16 571.146 486.251 570.973C488.957 567.602 489.537 563.916 489.059 559.648C488.773 557.098 487.805 554.215 485.753 552.537C484.554 551.556 483.35 551.481 481.887 551.419ZM329.044 576.46C322.808 578.961 310.773 582.572 305.716 586.302C303.959 587.598 302.476 589.549 301.054 591.201C301.194 594.944 300.663 602.263 302.616 605.343C311.995 603.004 320.881 602.506 330.491 602.506C330.598 594.631 331.783 584.598 329.966 577.021C329.666 576.823 329.393 576.546 329.044 576.46ZM695.729 578.28L694.105 578.645C692.013 582.315 693.254 596.341 693.596 601.181C704.056 602.462 714.587 603.085 725.125 603.046L726.753 602.913L727.035 602.408C722.158 594.347 717.535 585.796 712.155 578.079C706.663 578.01 701.217 577.987 695.729 578.28ZM684.77 581.459C674.469 587.03 664.284 592.813 654.221 598.803C643.146 605.395 632.218 612.275 620.73 618.136C593.15 632.209 572.943 638.32 542.566 642.9C532.534 644.413 522.29 645.886 512.128 645.853C494.64 645.795 467.173 641.059 450.454 636.219C424.66 628.753 400.454 615.881 376.905 603.193C363.895 596.183 351.344 588.935 337.464 583.706C337.503 587.847 337.43 592.021 337.62 596.156C341.454 599.161 347.693 600.823 352.185 602.905C358.852 606.054 365.472 609.303 372.042 612.648C391.094 622.257 410.002 632.445 429.854 640.332C464.732 653.913 502.413 658.712 539.581 654.308C580.028 649.421 614.674 631.918 650.297 613.277C662.114 607.094 673.565 600.371 685.946 595.338C685.954 593.014 686.63 583.284 685.282 581.913C684.88 581.504 685.059 581.621 684.77 581.459ZM344.823 607.312C399.723 651.191 459.496 686.448 532.498 678.34C580.243 673.037 629.388 646.854 666.009 616.668L676.263 607.775C652.785 618.882 630.545 632.437 606.746 642.968C552.322 667.387 490.551 669.756 434.417 649.575C415.298 642.744 397.291 633.622 379.302 624.295C371.553 620.277 352.29 609.099 344.823 607.312Z"/>
	<path fill="white" d="M259.459 346.481C258.96 346.908 258.545 347.117 257.96 347.402C251.881 344.389 245.928 339.24 240.354 335.27C230.711 328.402 219.933 321.66 211.12 313.792C210.361 313.115 209.629 312.409 209.386 311.372C208.959 309.548 209.86 307.926 210.759 306.435C212.273 306.361 213.581 306.298 214.973 307.007C220.607 309.875 225.943 314.469 231.082 318.177C241.727 325.835 252.31 333.58 262.83 341.409L259.459 346.481Z"/>
	<path fill="white" d="M762.837 341.64C779.983 331.048 795.791 317.999 813.244 307.913C813.386 307.899 813.527 307.874 813.669 307.869C815.138 307.818 816.763 308.263 817.726 309.45C818.455 310.349 818.659 311.345 818.306 312.444C817.13 316.104 774.368 344.365 767.905 347.924C765.764 346.532 764.235 343.738 762.837 341.64Z"/>
	<path fill="white" d="M229.607 400.205L229.105 400.287C223.932 398.492 218.896 395.587 213.974 393.178C205.713 389.124 197.426 385.121 189.114 381.17L138.479 357.139C133.371 354.703 122.826 350.712 118.759 347.393C117.718 346.543 116.896 345.397 116.893 343.998C116.891 342.342 117.72 341.229 118.696 339.992C120.651 339.983 122.137 340.239 123.969 340.949C135.273 345.325 146.432 351.586 157.398 356.84C182.393 368.817 207.423 381.095 232.646 392.551C231.494 395.032 230.587 397.65 229.607 400.205Z"/>
	<path fill="white" d="M794.367 393.315C810.428 387.319 826.279 380.826 842.28 374.685C862.889 366.777 883.676 359.098 903.984 350.446C905.318 350.446 906.452 350.612 907.456 351.588C908.748 352.845 909.283 354.246 909.157 356.026C908.241 357.98 906.277 358.655 904.42 359.52C895.374 363.728 885.53 366.849 876.251 370.581L799.018 400.862C798.357 401.057 797.748 401.13 797.067 401.214C795.143 399.494 794.865 395.785 794.367 393.315Z"/>
	<path fill="white" d="M212.502 456.357C204.884 454.881 155.17 443.892 152.424 441.606C151.642 440.955 151.077 439.772 151.114 438.753C151.189 436.657 152.497 435.576 154.023 434.413C161.439 435.587 168.894 437.643 176.22 439.313C188.988 442.224 201.874 445.075 214.486 448.608C214.21 450.659 214.026 455.038 212.502 456.357Z"/>
	<path fill="white" d="M811.92 450.303C830.257 446.809 848.443 442.568 866.798 439.136C868.412 438.902 870.496 438.424 872.019 439.254C872.923 439.747 873.266 440.239 873.545 441.184C873.912 442.431 873.861 443.848 873.074 444.942C872.183 446.181 870.61 446.695 869.218 447.117C863.535 448.838 857.353 449.629 851.52 450.794C840.519 452.942 829.545 455.225 818.601 457.642L813.743 458.779C812.999 455.983 812.478 453.14 811.92 450.303Z"/>
	<path fill="white" d="M205.624 515.508L123.187 512.343C111.938 511.858 99.8244 512.298 88.7047 510.756C87.2267 510.551 86.3755 510.252 85.2547 509.272C84.6196 507.931 84.3337 507.223 84.6652 505.732C85.0244 504.116 85.923 503.415 87.2432 502.552C107.851 502.311 128.657 504.044 149.251 504.947C168.62 505.798 188.114 505.849 207.437 507.491C207.471 509.775 207.987 513.101 206.955 515.175L205.624 515.508Z"/>
	<path fill="white" d="M818.924 520.037L819.283 511.555L900.099 512.37C909.73 512.425 930.868 511.434 938.713 513.197C939.371 513.728 939.992 514.02 940.293 514.847C941.023 516.85 940.292 518.839 939.522 520.707C934.1 522.4 906.612 520.741 898.61 520.631C872.051 520.128 845.487 519.931 818.924 520.037Z"/>
	<path fill="white" d="M154.226 587.433C153.002 586.319 151.883 585.11 151.608 583.402C151.432 582.268 151.782 581.117 152.558 580.273C155.038 577.596 202.986 568.925 209.876 567.702L210.154 567.903C211.214 570.271 211.223 573.306 211.514 575.874C198.633 578.904 185.591 581.409 172.627 584.053C166.772 585.247 160.165 587.391 154.226 587.433Z"/>
	<path fill="white" d="M811.663 579.42C812.287 576.887 813.008 574.374 813.694 571.856C826.81 573.307 839.886 575.986 852.862 578.354C858.396 579.365 865.053 579.895 870.295 581.868C871.873 582.461 872.513 583.2 873.237 584.736C873.296 586.553 872.621 587.645 871.769 589.214C865.333 590.574 821.02 581.434 811.663 579.42Z"/>
	<path fill="white" d="M118.273 672.902C116.866 672.427 115.468 671.778 114.882 670.294C114.423 669.131 114.482 667.895 115.112 666.81C115.786 665.65 116.639 665.168 117.841 664.65C122.654 662.579 127.9 661.174 132.87 659.479C140.128 657.004 147.33 654.343 154.557 651.78C177.027 643.81 199.442 635.343 222.125 628.018L222.853 628.326C224.264 630.616 224.953 633.157 225.768 635.703C212.946 641.188 199.215 644.941 186.099 649.729C172.271 654.896 158.369 659.866 144.398 664.636C135.824 667.618 127.159 671.01 118.273 672.902Z"/>
	<path fill="white" d="M904.535 683.296C902.751 683.49 901.286 683.277 899.565 682.749C886.253 678.658 871.252 671.761 858.196 666.388L807.631 646.074C804.865 644.938 797.586 642.663 796.713 639.553C796.156 637.567 797.607 635.51 798.511 633.839C800.438 633.914 802.078 634.324 803.875 635.002C810.737 637.59 817.442 640.772 824.235 643.556L865.195 659.924L890.334 670.02C894.993 671.897 900.109 673.548 904.457 676.046C905.417 676.598 906.115 677.153 906.31 678.289C906.658 680.316 905.721 681.763 904.535 683.296Z"/>
	<path fill="white" d="M678.702 766.701C680.836 765.078 683.165 763.832 685.501 762.528C689.577 766.387 714.499 804.43 717.582 810.704C717.677 812.022 717.456 812.524 716.789 813.654C715.292 814.817 713.694 815.056 711.873 815.461C708.472 812.595 682.278 772.933 678.702 766.701Z"/>
	<path fill="white" d="M309.224 813.65C307.872 813.54 306.222 813.46 305.045 812.69C303.924 811.957 303.565 811.063 303.408 809.785C303.281 808.754 303.58 807.468 304.031 806.553C306.049 802.463 309.993 798.258 312.691 794.48C320.119 784.081 327.236 772.386 335.69 762.863C337.691 764.349 339.549 765.925 341.408 767.58C338.762 772.798 334.264 777.569 330.904 782.418C326.357 788.98 321.931 795.632 317.475 802.256C314.957 805.999 312.492 810.525 309.224 813.65Z"/>
	<path fill="white" d="M348.246 906.752C347.119 907.094 346.054 907.335 344.864 907.18C343.662 907.023 342.519 906.308 341.929 905.242C341.021 903.602 341.724 901.425 342.222 899.782C345.314 889.581 352.752 874.51 357.155 864.164L387.897 792.037L395.514 795.316C389.813 807.211 385.119 819.785 380.157 832.011L361.414 877.212C358.626 883.952 352.071 902.363 348.246 906.752Z"/>
	<path fill="white" d="M623.955 796.331L630.641 793.425C631.458 793.485 630.998 793.373 631.95 793.973C636.632 806.643 642.39 819.003 647.784 831.386C654.946 847.655 661.875 864.026 668.568 880.494C671.058 886.527 677.219 898.871 677.827 904.748C677.968 906.111 677.679 907.009 676.776 908.06C675.759 909.244 673.907 909.501 672.465 909.709C670.514 908.428 669.698 907.41 668.643 905.336C664.86 897.901 662.148 889.682 658.937 881.97L638.303 831.772C633.879 820.722 627.028 807.436 623.955 796.331Z"/>
	<path fill="white" d="M443.167 873.223C441.921 874.069 440.541 874.609 439.015 874.166C438.287 873.954 437.614 873.506 437.211 872.867C436.467 871.685 436.479 870.588 436.571 869.249C436.993 863.138 438.881 856.764 439.988 850.708C442.451 837.237 444.648 823.688 447.805 810.358C450.522 810.664 453.252 811.259 455.946 811.742C453.202 824.305 450.679 836.916 448.377 849.567C446.892 857.335 445.87 865.803 443.167 873.223Z"/>
	<path fill="white" d="M567.294 811.691C569.613 811.425 571.931 811.034 574.243 810.702L574.392 810.712C575.935 811.974 586.426 863.175 587.341 869.137C587.665 871.249 587.699 871.974 586.412 873.705C584.81 874.523 583.49 874.509 581.714 874.538C580.868 873.759 580.222 872.881 579.804 871.806C577.491 865.86 576.631 858.687 575.343 852.415C572.572 838.858 569.889 825.283 567.294 811.691Z"/>
	<path fill="white" d="M513.265 942.597C512.731 942.752 512.196 942.904 511.652 943.021C510.08 943.358 508.782 943.366 507.386 942.495C504.666 937.694 506.405 833.043 506.351 817.613L514.389 817.584C514.599 843.841 514.659 870.098 514.567 896.355C514.566 910.292 515.404 924.863 514.4 938.738C514.295 940.185 513.931 941.318 513.265 942.597Z"/>
</svg>
